# This file uses centimeters as units for non-parametric coordinates.

g default
v -0.893722 0.000647 2.689903
v 0.893722 0.000647 2.689903
v -1.920418 3.400275 3.208449
v 1.520325 3.400275 3.208449
v -1.920418 3.400276 -3.208449
v 1.520326 3.400276 -3.208449
v -0.893722 0.000647 -2.504101
v 0.893722 0.000647 -2.504101
v 0.046578 7.174690 3.208449
v 0.000379 7.174690 -3.208449
v 0.047415 7.174684 3.513955
v 0.048172 7.315997 3.513948
v -2.385343 3.260005 3.516079
v -2.035259 3.116814 3.513954
v 1.634023 3.116353 3.513954
v 1.985619 3.255788 3.511820
v -0.000459 7.174690 -3.513952
v 0.000298 7.316003 -3.513957
v -2.037143 3.117585 -3.513951
v -2.387227 3.260776 -3.511827
v 1.983719 3.255035 -3.516086
v 1.632122 3.115600 -3.513951
v -0.591909 0.000647 2.697617
v 0.452489 0.000647 2.697617
v -0.875846 1.827953 3.071960
v -0.139594 2.336528 3.144705
v 0.792233 1.787064 3.066112
v 0.792233 1.813517 2.703471
v 0.452489 0.025454 2.534979
v -0.139594 2.362982 2.782065
v -0.875847 1.854406 2.709320
v -0.591909 0.025454 2.534979
v 0.038520 7.315998 1.933961
v 0.031626 7.315999 1.419922
v -0.248788 6.840925 1.660313
v -0.293866 6.898457 1.435631
v -0.290310 7.356933 1.422043
v -0.284704 7.360943 1.936082
v 0.063921 7.321467 1.793484
v 0.061420 7.321345 1.563587
v -0.283744 7.349335 1.751325
v -0.285252 7.348142 1.585002
v -0.215009 8.448520 1.772847
v 0.109805 8.420651 1.790978
v 0.106898 8.420510 1.561081
v -0.216516 8.447325 1.564321
v -0.231602 7.851988 1.583606
v -0.230320 8.116633 1.565076
v -0.228993 7.879555 1.749869
v -0.228151 8.133671 1.768421
v 0.087635 7.889558 1.792189
v 0.096943 8.112547 1.791680
v 0.085116 7.888999 1.562292
v 0.094779 8.120478 1.561765
v -0.451766 7.884442 1.751021
v -0.454375 7.856874 1.566587
v -0.451139 8.142983 1.750688
v -0.453308 8.125945 1.566231
v 0.308102 7.879687 1.560778
v 0.310620 7.880246 1.790675
v 0.317765 8.111166 1.560250
v 0.319929 8.103236 1.790166
v -0.033174 7.175802 3.514030
v 0.116623 7.172547 3.513873
v 0.048456 7.368715 3.786924
v -0.032889 7.228519 3.787005
v 0.116908 7.225265 3.786848
vt 0.000000 0.736385
vt 0.000000 0.440532
vt 0.193644 0.400412
vt 0.193644 0.765921
vt 0.661450 0.832616
vt 0.661450 0.536763
vt 0.855094 0.507227
vt 0.855094 0.872736
vt 0.499250 0.125507
vt 0.730415 0.125506
vt 0.730415 0.142908
vt 0.515422 0.142908
vt 0.515423 0.508418
vt 0.730415 0.508418
vt 0.730415 0.525819
vt 0.499207 0.525819
vt 0.237123 0.816166
vt 0.237167 0.415853
vt 0.468262 0.415853
vt 0.468262 0.433254
vt 0.253270 0.433254
vt 0.253269 0.798764
vt 0.468262 0.798764
vt 0.468262 0.816166
vt 0.223143 0.400430
vt 0.000043 0.400313
vt 0.000000 0.000000
vt 0.231315 0.000121
vt 0.231314 0.281157
vt 0.231619 0.289340
vt 0.231626 0.302435
vt 0.231314 0.310437
vt 0.231314 0.400434
vt 0.234317 0.415983
vt 0.226146 0.415978
vt 0.263953 0.289267
vt 0.263985 0.302362
vt 0.953407 0.018434
vt 0.959795 0.122135
vt 0.939134 0.120705
vt 0.944036 0.018523
vt 0.959801 0.153751
vt 0.939139 0.152322
vt 0.528471 0.018169
vt 0.634524 0.024558
vt 0.634436 0.033929
vt 0.529900 0.038831
vt 0.499207 0.018164
vt 0.500637 0.038825
vt 0.498567 0.134709
vt 0.472452 0.133935
vt 0.469175 0.121137
vt 0.498795 0.105429
vt 0.498134 0.115953
vt 0.498066 0.125427
vt 0.488249 0.015549
vt 0.491252 0.000000
vt 0.499238 0.000005
vt 0.496235 0.015553
vt 0.496235 0.105550
vt 0.496235 0.134830
vt 0.496235 0.415866
vt 0.265248 0.415745
vt 0.265204 0.015432
vt 0.528335 0.116036
vt 0.526765 0.125507
vt 0.792492 0.007731
vt 0.805587 0.008213
vt 0.805587 0.025303
vt 0.792492 0.025281
vt 0.808092 0.008408
vt 0.819677 0.009352
vt 0.819970 0.027285
vt 0.808092 0.027245
vt 0.842412 0.010805
vt 0.852921 0.012355
vt 0.852930 0.027081
vt 0.842421 0.026131
vt 0.265204 0.000002
vt 0.278299 0.000000
vt 0.278299 0.013185
vt 0.265204 0.012703
vt 0.878085 0.207120
vt 0.878040 0.607432
vt 0.858012 0.607546
vt 0.858058 0.207234
vt 0.914173 0.907205
vt 0.914219 0.506892
vt 0.934160 0.506778
vt 0.934114 0.907091
vt 0.972134 0.516042
vt 0.972134 0.506779
vt 0.912644 0.506779
vt 0.912644 0.516042
vt 0.895453 0.515603
vt 0.895453 0.219750
vt 0.997267 0.219750
vt 0.997267 0.515603
vt 0.250821 0.024203
vt 0.249604 0.005713
vt 0.262700 0.005748
vt 0.262699 0.024170
vt 0.833052 0.029936
vt 0.833059 0.010152
vt 0.841331 0.011344
vt 0.842335 0.029654
vt 0.820890 0.011076
vt 0.828907 0.009715
vt 0.831096 0.029543
vt 0.820572 0.029484
vt 0.325522 0.000098
vt 0.334993 0.000000
vt 0.334991 0.012689
vt 0.324485 0.012782
vt 0.312005 0.000000
vt 0.323588 0.000061
vt 0.323590 0.012763
vt 0.313083 0.012696
vt 0.280812 0.013096
vt 0.280804 0.000000
vt 0.293506 0.000045
vt 0.293513 0.013141
vt 0.296404 0.013127
vt 0.296407 0.000031
vt 0.309109 0.000000
vt 0.309106 0.013097
vt 0.240243 0.033626
vt 0.240245 0.018078
vt 0.244836 0.018079
vt 0.248778 0.018079
vt 0.248776 0.033627
vt 0.429250 0.525836
vt 0.485926 0.713448
vt 0.255844 0.695262
vt 0.631532 0.525819
vt 0.636504 0.542276
vt 0.532190 0.556893
vt 0.516586 0.605416
vt 0.561896 0.647175
vt 0.653707 0.599224
vt 0.660975 0.623283
vt 0.627129 0.256520
vt 0.791751 0.080192
vt 0.815465 0.310745
vt 0.727589 0.486955
vt 0.629750 0.458786
vt 0.500791 0.015946
vt 0.499207 0.012334
vt 0.747398 0.009936
vt 0.747501 0.031480
vt 0.742571 0.000564
vt 1.000000 0.000000
vt 0.998395 0.021485
vt 0.749792 0.004120
vt 0.906981 0.209436
vt 0.890932 0.223810
vt 0.918075 0.016037
vt 0.937427 0.117886
vt 0.884350 0.149183
vt 0.842412 0.120215
vt 0.858585 0.016037
vt 0.252372 0.002071
vt 0.234171 0.026115
vt 0.234003 0.000000
vt 0.777071 0.006226
vt 0.795105 0.032204
vt 0.776891 0.035916
vt 0.655267 0.070931
vt 0.654599 0.088484
vt 0.636030 0.088592
vt 0.636712 0.070655
vt 0.624009 0.070172
vt 0.625147 0.055489
vt 0.637818 0.056223
vt 0.637116 0.025869
vt 0.656983 0.025865
vt 0.655751 0.058228
vt 0.668454 0.058711
vt 0.667970 0.071415
vt 0.701960 0.045721
vt 0.714665 0.045272
vt 0.715131 0.058460
vt 0.702427 0.058909
vt 0.703571 0.091251
vt 0.683766 0.091250
vt 0.684602 0.062400
vt 0.671929 0.063100
vt 0.670810 0.047814
vt 0.683514 0.047365
vt 0.682848 0.028524
vt 0.701333 0.028629
vt 0.521947 0.405407
vt 0.517979 0.403099
vt 0.517928 0.142906
vt 0.539222 0.146179
vt 0.345050 0.004077
vt 0.336965 0.008535
vt 0.336966 0.000000
vn 0.000201 -0.067587 0.997713
vn 0.000200 -0.067199 0.997740
vn 0.000000 0.000000 1.000000
vn 0.000000 -0.126665 -0.991946
vn 0.000000 0.000000 -1.000000
vn 0.000000 -0.126956 -0.991908
vn 0.983435 -0.181262 0.000000
vn 0.983435 -0.181262 0.000000
vn 0.983435 -0.181262 0.000000
vn 0.983435 -0.181262 0.000000
vn -0.957297 -0.289106 0.000000
vn -0.957297 -0.289106 0.000000
vn -0.957297 -0.289106 0.000000
vn -0.957297 -0.289106 0.000000
vn 0.000382 -0.128656 0.991689
vn 0.000382 -0.128656 0.991689
vn 0.000382 -0.128656 0.991689
vn 0.000382 -0.128656 0.991689
vn 0.000382 -0.128656 0.991689
vn 0.000382 -0.128656 0.991689
vn 0.000382 -0.128656 0.991689
vn 0.000200 -0.067199 0.997740
vn 0.000201 -0.067587 0.997713
vn 0.000000 -0.126665 -0.991946
vn 0.000000 -0.126956 -0.991908
vn 0.000000 -0.202875 -0.979205
vn 0.000000 -0.202875 -0.979205
vn 0.004688 0.001773 0.999987
vn 0.004688 0.001773 0.999987
vn 0.004688 0.001773 0.999987
vn 0.004688 0.001773 0.999987
vn -0.004489 0.000207 -0.999990
vn -0.004489 0.000207 -0.999990
vn -0.004489 0.000207 -0.999990
vn -0.004489 0.000207 -0.999990
vn -0.004489 0.000207 -0.999990
vn -0.004489 0.000207 -0.999990
vn -0.929565 -0.368645 0.003116
vn -0.929565 -0.368645 0.003116
vn -0.929565 -0.368645 0.003116
vn -0.929565 -0.368645 0.003116
vn -0.929565 -0.368645 0.003116
vn -0.929565 -0.368645 0.003116
vn -0.929565 -0.368645 0.003116
vn -0.929565 -0.368645 0.003116
vn 0.368646 -0.929570 0.000000
vn 0.368646 -0.929570 0.000000
vn 0.368646 -0.929570 0.000000
vn 0.368646 -0.929570 0.000000
vn 0.906436 -0.422333 -0.003072
vn 0.906436 -0.422333 -0.003072
vn 0.906436 -0.422333 -0.003072
vn 0.906436 -0.422333 -0.003072
vn 0.906436 -0.422333 -0.003072
vn 0.906436 -0.422333 -0.003072
vn 0.906436 -0.422333 -0.003072
vn 0.906436 -0.422333 -0.003072
vn -0.378575 -0.925571 0.000000
vn -0.378575 -0.925571 0.000000
vn -0.378575 -0.925571 0.000000
vn -0.378575 -0.925571 0.000000
vn 0.900612 0.434612 -0.003324
vn 0.900612 0.434611 -0.003324
vn 0.900612 0.434612 -0.003324
vn 0.900612 0.434612 -0.003324
vn 0.900612 0.434612 -0.003324
vn 0.900612 0.434612 -0.003324
vn 0.900612 0.434611 -0.003324
vn 0.900612 0.434611 -0.003324
vn 0.900612 0.434612 -0.003324
vn 0.900612 0.434612 -0.003324
vn 0.900612 0.434612 -0.003324
vn 0.000614 -0.101592 0.994826
vn 0.000614 -0.101592 0.994826
vn 0.000614 -0.101592 0.994826
vn 0.000614 -0.101592 0.994826
vn 0.000614 -0.101592 0.994826
vn -0.982741 0.184115 0.017967
vn -0.982741 0.184115 0.017967
vn -0.982741 0.184115 0.017967
vn -0.982741 0.184115 0.017967
vn -0.510848 -0.857393 -0.062544
vn -0.510848 -0.857393 -0.062544
vn -0.510848 -0.857393 -0.062544
vn -0.510848 -0.857393 -0.062544
vn 0.571323 -0.818550 -0.059711
vn 0.571323 -0.818550 -0.059711
vn 0.571323 -0.818550 -0.059711
vn 0.571323 -0.818550 -0.059711
vn 0.988378 0.151295 0.014763
vn 0.988378 0.151295 0.014763
vn 0.988378 0.151295 0.014763
vn 0.988378 0.151295 0.014763
vn 0.000000 -0.999996 0.002839
vn 0.000000 -0.999996 0.002839
vn 0.000000 -0.999996 0.002839
vn 0.000000 -0.999996 0.002839
vn 0.000000 -0.999996 0.002839
vn 0.000000 -0.999996 0.002839
vn 0.000000 -0.999996 0.002839
vn 0.000000 -0.999996 0.002839
vn -0.996803 -0.045413 0.065736
vn -0.996803 -0.045413 0.065736
vn -0.996803 -0.045413 0.065736
vn -0.996803 -0.045413 0.065736
vn -0.998440 -0.015907 0.053524
vn -0.998433 -0.016099 0.053604
vn -0.010340 -0.029542 -0.999510
vn -0.010340 -0.029542 -0.999510
vn -0.010340 -0.029542 -0.999510
vn -0.059702 -0.470883 0.880173
vn -0.059702 -0.470883 0.880173
vn -0.059702 -0.470883 0.880173
vn 0.084148 0.996446 -0.003881
vn 0.084148 0.996446 -0.003881
vn 0.084148 0.996446 -0.003881
vn 0.084148 0.996446 -0.003881
vn 0.100775 0.994909 -0.000282
vn 0.100775 0.994909 -0.000282
vn 0.100775 0.994909 -0.000282
vn 0.100775 0.994909 -0.000282
vn 0.108481 0.994049 -0.009973
vn 0.108481 0.994049 -0.009973
vn 0.108481 0.994048 -0.009973
vn 0.108481 0.994048 -0.009973
vn 0.999088 -0.041067 -0.011713
vn 0.999088 -0.041067 -0.011713
vn 0.999088 -0.041067 -0.011713
vn 0.999088 -0.041067 -0.011713
vn -0.999107 0.041666 0.007074
vn -0.999107 0.041666 0.007074
vn -0.999107 0.041666 0.007074
vn -0.999107 0.041666 0.007074
vn -0.998433 -0.016099 0.053604
vn -0.998440 -0.015907 0.053524
vn -0.994544 0.104267 0.003292
vn -0.994544 0.104267 0.003292
vn -0.999916 0.003227 0.012560
vn -0.999916 0.003227 0.012560
vn -0.999916 0.003227 0.012560
vn -0.999916 0.003227 0.012560
vn 0.999070 -0.041730 -0.010843
vn 0.999070 -0.041730 -0.010843
vn 0.999070 -0.041730 -0.010843
vn 0.999070 -0.041730 -0.010843
vn 0.999070 -0.041729 -0.010843
vn 0.999070 -0.041729 -0.010843
vn 0.999070 -0.041729 -0.010843
vn 0.999070 -0.041729 -0.010843
vn -0.027203 -0.987438 0.155650
vn -0.027203 -0.987438 0.155650
vn -0.027203 -0.987438 0.155650
vn -0.027203 -0.987438 0.155650
vn -0.083914 -0.006124 0.996454
vn -0.083914 -0.006124 0.996454
vn -0.083914 -0.006124 0.996454
vn -0.083914 -0.006124 0.996454
vn -0.083914 -0.006124 0.996454
vn -0.083914 -0.006124 0.996454
vn -0.083914 -0.006124 0.996454
vn -0.083914 -0.006124 0.996454
vn -0.083914 -0.006124 0.996454
vn -0.083914 -0.006124 0.996454
vn -0.083914 -0.006124 0.996454
vn -0.083914 -0.006124 0.996454
vn 0.044823 0.995117 -0.087943
vn 0.044823 0.995117 -0.087943
vn 0.044823 0.995117 -0.087943
vn 0.044823 0.995117 -0.087943
vn -0.041706 -0.999126 0.002883
vn -0.041706 -0.999126 0.002883
vn -0.041706 -0.999126 0.002883
vn -0.041706 -0.999126 0.002883
vn -0.028983 -0.010659 -0.999523
vn -0.028983 -0.010659 -0.999523
vn -0.028983 -0.010659 -0.999523
vn -0.028983 -0.010659 -0.999523
vn -0.028983 -0.010659 -0.999523
vn -0.028983 -0.010659 -0.999523
vn -0.028983 -0.010659 -0.999523
vn -0.028983 -0.010659 -0.999523
vn -0.028983 -0.010659 -0.999523
vn -0.028983 -0.010659 -0.999523
vn -0.028983 -0.010659 -0.999523
vn -0.028983 -0.010659 -0.999523
vn 0.041930 0.998540 0.034048
vn 0.041930 0.998540 0.034048
vn 0.041930 0.998540 0.034048
vn 0.041930 0.998540 0.034048
vn 0.004378 -0.002178 0.999988
vn 0.004378 -0.002178 0.999988
vn 0.004378 -0.002178 0.999988
vn 0.004378 -0.002178 0.999988
vn 0.001037 -0.000027 0.999999
vn 0.001037 -0.000027 0.999999
vn 0.001037 -0.000027 0.999999
vn -0.859821 0.510589 0.002509
vn -0.859821 0.510589 0.002509
vn -0.859821 0.510589 0.002509
vn -0.859821 0.510589 0.002509
vn -0.859821 0.510589 0.002509
vn -0.859821 0.510589 0.002509
vn -0.859821 0.510589 0.002509
vn -0.859821 0.510589 0.002509
vn -0.859821 0.510589 0.002509
vn -0.859821 0.510589 0.002509
vn -0.859821 0.510589 0.002509
vn -0.021133 -0.981846 0.188500
vn -0.021133 -0.981846 0.188500
vn -0.021133 -0.981846 0.188500
vn -0.021133 -0.981846 0.188500
vn -0.021133 -0.981846 0.188500
s off
g housetomb:pCube1
f 3/132/1 4/133/2 9/134/3
f 5/142/4 10/143/5 6/144/6
f 2/1/7 8/2/8 6/3/9 4/4/10
f 7/5/11 1/6/12 3/7/13 5/8/14
f 1/135/15 23/136/16 25/137/17 26/138/18 27/139/19 24/140/20 2/141/21 4/133/22 3/132/23
f 5/142/24 6/144/25 8/145/26 7/146/27
f 64/147/28 11/148/29 15/149/30 16/150/31
f 18/151/32 21/152/33 22/153/34 17/154/35 19/155/36 20/156/37
f 15/9/38 11/10/39 9/11/40 4/12/41 6/13/42 10/14/43 17/15/44 22/16/45
f 21/83/46 16/84/47 15/85/48 22/86/49
f 14/17/50 19/18/51 17/19/52 10/20/53 5/21/54 3/22/55 9/23/56 11/24/57
f 13/87/58 20/88/59 19/89/60 14/90/61
f 64/25/62 16/26/63 21/27/64 18/28/65 34/29/66 40/30/67 39/31/68 33/32/69 12/33/70 65/34/71 67/35/72
f 29/157/73 28/158/74 30/159/75 31/160/76 32/161/77
f 24/38/78 27/39/79 28/40/80 29/41/81
f 27/39/82 26/42/83 30/43/84 28/40/85
f 26/48/86 25/44/87 31/47/88 30/49/89
f 25/44/90 23/45/91 32/46/92 31/47/93
f 24/91/94 29/92/95 32/93/96 23/94/97 1/95/98 7/96/99 8/97/100 2/98/101
f 37/50/102 36/51/103 35/52/104 38/53/105 41/54/106 42/55/107
f 34/162/108 36/163/109 37/164/110
f 35/165/111 33/166/112 38/167/113
f 43/99/114 44/100/115 45/101/116 46/102/117
f 42/103/118 40/104/119 34/105/120 37/106/121
f 33/107/122 39/108/123 41/109/124 38/110/125
f 52/67/126 54/68/127 45/69/128 44/70/129
f 48/71/130 50/72/131 43/73/132 46/74/133
f 42/55/134 41/54/135 49/65/136 47/66/137
f 56/75/138 55/76/139 57/77/140 58/78/141
f 39/31/142 40/30/143 53/36/144 51/37/145
f 60/79/146 59/80/147 61/81/148 62/82/149
f 47/111/150 49/112/151 55/113/152 56/114/153
f 52/168/154 44/169/155 43/170/156 50/171/157 57/172/158 55/173/159 49/174/160 41/175/161 39/176/162 51/177/163 60/178/164 62/179/165
f 50/115/166 48/116/167 58/117/168 57/118/169
f 51/119/170 53/120/171 59/121/172 60/122/173
f 54/180/174 61/181/175 59/182/176 53/183/177 40/184/178 42/185/179 47/186/180 56/187/181 58/188/182 48/189/183 46/190/184 45/191/185
f 54/123/186 52/124/187 62/125/188 61/126/189
f 11/192/190 63/193/191 13/194/192 14/195/193
f 65/196/194 66/197/195 67/198/196
f 63/56/197 66/57/198 65/58/199 12/59/200 33/60/201 35/52/202 36/51/203 34/61/204 18/62/205 20/63/206 13/64/207
f 66/127/208 63/128/209 11/129/210 64/130/211 67/131/212
