# This file uses centimeters as units for non-parametric coordinates.

mtllib housetomb.mtl
g default
v -0.893722 0.000647 2.689903
v 0.893722 0.000647 2.689903
v -1.920418 3.400275 3.208449
v 1.520325 3.400275 3.208449
v -1.920418 3.400276 -3.208449
v 1.520326 3.400276 -3.208449
v -0.893722 0.000647 -2.504101
v 0.893722 0.000647 -2.504101
v 0.046578 7.174690 3.208449
v 0.000379 7.174690 -3.208449
v 0.047415 7.174684 3.513955
v 0.048172 7.315997 3.513948
v -2.385343 3.260005 3.516079
v -2.035259 3.116814 3.513954
v 1.634023 3.116353 3.513954
v 1.985619 3.255788 3.511820
v -0.000459 7.174690 -3.513952
v 0.000298 7.316003 -3.513957
v -2.037143 3.117585 -3.513951
v -2.387227 3.260776 -3.511827
v 1.983719 3.255035 -3.516086
v 1.632122 3.115600 -3.513951
v -0.591909 0.000647 2.697617
v 0.452489 0.000647 2.697617
v -0.875846 1.827953 3.071960
v -0.139594 2.336528 3.144705
v 0.792233 1.787064 3.066112
v 0.792233 1.813517 2.703471
v 0.452489 0.025454 2.534979
v -0.139594 2.362982 2.782065
v -0.875847 1.854406 2.709320
v -0.591909 0.025454 2.534979
v 0.038520 7.315998 1.933961
v 0.031626 7.315999 1.419922
v -0.248788 6.840925 1.660313
v -0.293866 6.898457 1.435631
v -0.290310 7.356933 1.422043
v -0.284704 7.360943 1.936082
v 0.063921 7.321467 1.793484
v 0.061420 7.321345 1.563587
v -0.283744 7.349335 1.751325
v -0.285252 7.348142 1.585002
v -0.215009 8.448520 1.772847
v 0.109805 8.420651 1.790978
v 0.106898 8.420510 1.561081
v -0.216516 8.447325 1.564321
v -0.231602 7.851988 1.583606
v -0.230320 8.116633 1.565076
v -0.228993 7.879555 1.749869
v -0.228151 8.133671 1.768421
v 0.087635 7.889558 1.792189
v 0.096943 8.112547 1.791680
v 0.085116 7.888999 1.562292
v 0.094779 8.120478 1.561765
v -0.451766 7.884442 1.751021
v -0.454375 7.856874 1.566587
v -0.451139 8.142983 1.750688
v -0.453308 8.125945 1.566231
v 0.308102 7.879687 1.560778
v 0.310620 7.880246 1.790675
v 0.317765 8.111166 1.560250
v 0.319929 8.103236 1.790166
v -0.033174 7.175802 3.514030
v 0.116623 7.172547 3.513873
v 0.048456 7.368715 3.786924
v -0.032889 7.228519 3.787005
v 0.116908 7.225265 3.786848
vt 0.320359 0.750000
vt 0.320359 1.000000
vt 0.745930 1.000000
vt 0.449339 0.989124
vt 0.320359 0.500000
vt 0.320359 0.250000
vt 0.320359 0.500000
vt 0.448524 0.250000
vt 0.523340 -0.015559
vt 0.320359 0.250000
vt 0.445385 0.500000
vt 0.037389 0.953048
vt 0.570359 0.250000
vt 0.570359 0.500000
vt 0.570359 0.500000
vt 0.004835 0.352084
vt 0.320359 0.250000
vt 0.569199 1.079452
vt 0.570359 0.500000
vt 0.801509 -0.266054
vt 0.570359 0.250000
vt 0.377727 1.000000
vt 0.670600 0.000000
vt 0.399230 0.084053
vt 0.464085 0.119125
vt 0.517702 0.081233
vt 0.495029 0.000000
vt 0.517702 0.081233
vt 0.464085 0.119125
vt 0.399230 0.084053
vt 0.377727 0.000000
vt 0.037389 0.950229
vt 0.037670 0.002487
vt 1.000000 0.002305
vt 0.999708 0.984941
vt 0.443633 0.250000
vt 0.324113 0.984940
vt 0.452828 0.250000
vt 0.413256 0.035191
vt 0.443633 0.250000
vt 0.426973 0.024548
vt 0.316457 0.250000
vt 0.566457 0.250000
vt 0.444621 0.868609
vt 0.448524 0.250000
vt 0.320359 0.500000
vt 0.570359 0.750000
vt 0.377727 0.000000
vt 0.000000 0.965878
vt 0.000011 1.000000
vt 0.037400 0.987169
vt 0.304441 0.986234
vt 0.253808 0.987170
vt 0.291289 0.871544
vt 0.322064 0.885546
vt 0.324215 0.987170
vt 0.570359 0.500000
vt 0.272961 0.986263
vt 0.253726 0.984940
vt 0.037378 0.984939
vt -0.000000 0.997696
vt 0.000010 0.962985
vt 1.000000 0.987171
vt 0.999708 0.000188
vt 0.037108 -0.000000
vt 0.590712 0.966113
vt 0.590712 0.646636
vt 0.874009 0.603313
vt 0.874009 0.998008
vt 0.580086 0.819952
vt 0.262187 0.851652
vt 0.202339 0.572918
vt 0.595086 0.533754
vt 0.001745 0.285289
vt 0.303799 0.285289
vt 0.174423 0.599817
vt 0.091876 0.001992
vt 0.118371 0.001992
vt 0.093445 0.154265
vt 0.158079 0.196645
vt 0.239882 0.150857
vt 0.210056 0.001992
vt 0.248791 0.001992
vt 0.310846 0.316520
vt 0.479469 0.001992
vt 0.612901 0.316520
vt 0.557893 0.599817
vt 0.400978 0.599817
vt 0.511261 0.665293
vt 0.610631 0.669937
vt 0.610927 0.845620
vt 0.511565 0.845703
vt 0.617384 0.665293
vt 0.705271 0.675270
vt 0.707184 0.859628
vt 0.617058 0.858929
vt 0.819411 0.665294
vt 0.891297 0.665992
vt 0.890667 0.976460
vt 0.818808 0.960318
vt 0.425418 0.665922
vt 0.505130 0.682065
vt 0.504986 0.833452
vt 0.425264 0.823475
vt 0.897428 0.665365
vt 0.996790 0.665294
vt 0.997350 0.997681
vt 0.897988 0.998008
vt 0.001991 0.809122
vt 0.101353 0.808795
vt 0.101581 0.944337
vt 0.002211 0.939693
vt 0.721151 0.865656
vt 0.713315 0.665293
vt 0.812677 0.667086
vt 0.811277 0.866586
vt 0.240628 0.667531
vt 0.312487 0.665922
vt 0.312985 0.803341
vt 0.233272 0.804950
vt 0.139255 0.665922
vt 0.227141 0.667260
vt 0.226642 0.804811
vt 0.146919 0.803473
vt 0.419132 0.803472
vt 0.319771 0.805025
vt 0.319116 0.667475
vt 0.418478 0.665922
vt 0.132469 0.804806
vt 0.033099 0.803472
vt 0.033753 0.665922
vt 0.133123 0.667257
vt 0.340466 0.465206
vt 0.348399 0.645615
vt 0.148036 0.661933
vt 0.139929 0.477575
vt 0.002378 0.483027
vt 0.001991 0.331640
vt 0.139410 0.328778
vt 0.105636 0.018310
vt 0.320096 0.001992
vt 0.334724 0.334635
vt 0.472274 0.329182
vt 0.478016 0.459753
vt 0.823956 0.193376
vt 0.961506 0.198829
vt 0.955545 0.334370
vt 0.817995 0.328918
vt 0.803378 0.661305
vt 0.589531 0.645614
vt 0.622626 0.350589
vt 0.485207 0.347728
vt 0.485865 0.190175
vt 0.623416 0.195628
vt 0.631931 0.001992
vt 0.831432 0.017694
vt 0.575265 0.872633
vt 0.559611 0.873091
vt 0.918481 0.001743
vt 0.998008 0.031680
vt 0.552251 0.872993
vt 0.534022 0.873233
vt 0.001992 0.032487
vt 0.081177 0.001743
vt 0.001817 0.453958
vt 0.880227 0.001992
vt 0.910388 0.082111
vt 0.032384 0.454130
vt 0.909958 0.918234
vt 0.878986 0.998008
vt 0.001888 0.525244
vt 0.012058 0.060331
vt 0.180229 0.001992
vt 0.386637 0.529311
vt 0.248350 0.517540
vt 0.123860 0.516331
vt 0.469023 0.903433
vt 0.485052 0.533095
vt 0.592582 0.564923
vt 0.590995 0.908836
vt 0.326508 0.560230
vt 0.431652 0.533095
vt 0.463207 0.904493
vt 0.324920 0.905518
vt 0.946111 0.574604
vt 0.598399 0.998008
vt 0.602198 0.533095
vt 0.432133 0.001992
vt 0.739053 0.483735
vt 0.393766 0.529311
vn 0.000201 -0.067587 0.997713
vn 0.000200 -0.067199 0.997740
vn 0.000000 0.000000 1.000000
vn 0.000000 -0.126665 -0.991946
vn 0.000000 0.000000 -1.000000
vn 0.000000 -0.126956 -0.991908
vn 0.983435 -0.181262 0.000000
vn 0.983435 -0.181262 0.000000
vn 0.983435 -0.181262 0.000000
vn 0.983435 -0.181262 0.000000
vn -0.957297 -0.289106 -0.000000
vn -0.957297 -0.289106 -0.000000
vn -0.957297 -0.289106 -0.000000
vn -0.957297 -0.289106 -0.000000
vn 0.000382 -0.128656 0.991689
vn 0.000382 -0.128656 0.991689
vn 0.000382 -0.128656 0.991689
vn 0.000382 -0.128656 0.991689
vn 0.000382 -0.128656 0.991689
vn 0.000382 -0.128656 0.991689
vn 0.000382 -0.128656 0.991689
vn 0.000000 -0.202875 -0.979205
vn 0.000000 -0.202875 -0.979205
vn 0.004688 0.001773 0.999987
vn 0.004688 0.001773 0.999987
vn 0.004688 0.001773 0.999987
vn 0.004688 0.001773 0.999987
vn -0.004489 0.000207 -0.999990
vn -0.004489 0.000207 -0.999990
vn -0.004489 0.000207 -0.999990
vn -0.004489 0.000207 -0.999990
vn -0.004489 0.000207 -0.999990
vn -0.004489 0.000207 -0.999990
vn -0.929565 -0.368645 0.003116
vn -0.929565 -0.368645 0.003116
vn -0.929565 -0.368645 0.003116
vn -0.929565 -0.368645 0.003116
vn -0.929565 -0.368645 0.003116
vn -0.929565 -0.368645 0.003116
vn -0.929565 -0.368645 0.003116
vn -0.929565 -0.368645 0.003116
vn 0.368646 -0.929570 -0.000000
vn 0.368646 -0.929570 -0.000000
vn 0.368646 -0.929570 -0.000000
vn 0.368646 -0.929570 -0.000000
vn 0.906436 -0.422333 -0.003072
vn 0.906436 -0.422333 -0.003072
vn 0.906436 -0.422333 -0.003072
vn 0.906436 -0.422333 -0.003072
vn 0.906435 -0.422333 -0.003072
vn 0.906436 -0.422333 -0.003072
vn 0.906436 -0.422333 -0.003072
vn 0.906436 -0.422333 -0.003072
vn -0.378575 -0.925571 0.000000
vn -0.378575 -0.925571 0.000000
vn -0.378575 -0.925571 0.000000
vn -0.378575 -0.925570 0.000000
vn 0.900612 0.434612 -0.003324
vn 0.900612 0.434611 -0.003324
vn 0.900612 0.434612 -0.003324
vn 0.900612 0.434612 -0.003324
vn 0.900612 0.434612 -0.003324
vn 0.900612 0.434612 -0.003324
vn 0.900612 0.434611 -0.003324
vn 0.900612 0.434611 -0.003324
vn 0.900612 0.434612 -0.003324
vn 0.900612 0.434612 -0.003324
vn 0.900612 0.434612 -0.003324
vn 0.000614 -0.101592 0.994826
vn 0.000614 -0.101592 0.994826
vn 0.000614 -0.101592 0.994826
vn 0.000614 -0.101592 0.994826
vn 0.000614 -0.101592 0.994826
vn -0.982741 0.184115 0.017967
vn -0.982741 0.184115 0.017967
vn -0.982741 0.184115 0.017967
vn -0.982741 0.184115 0.017967
vn -0.510848 -0.857393 -0.062544
vn -0.510848 -0.857393 -0.062544
vn -0.510848 -0.857393 -0.062544
vn -0.510848 -0.857393 -0.062544
vn 0.571323 -0.818550 -0.059711
vn 0.571323 -0.818550 -0.059711
vn 0.571323 -0.818550 -0.059711
vn 0.571323 -0.818550 -0.059711
vn 0.988378 0.151295 0.014763
vn 0.988378 0.151295 0.014763
vn 0.988378 0.151295 0.014763
vn 0.988378 0.151295 0.014763
vn 0.000000 -0.999996 0.002839
vn 0.000000 -0.999996 0.002839
vn 0.000000 -0.999996 0.002839
vn 0.000000 -0.999996 0.002839
vn 0.000000 -0.999996 0.002839
vn 0.000000 -0.999996 0.002839
vn 0.000000 -0.999996 0.002839
vn 0.000000 -0.999996 0.002839
vn -0.996803 -0.045413 0.065736
vn -0.996803 -0.045413 0.065736
vn -0.996803 -0.045413 0.065736
vn -0.996803 -0.045413 0.065736
vn -0.998440 -0.015907 0.053524
vn -0.998433 -0.016099 0.053604
vn -0.010340 -0.029542 -0.999510
vn -0.010340 -0.029542 -0.999510
vn -0.010340 -0.029542 -0.999510
vn -0.059702 -0.470883 0.880173
vn -0.059702 -0.470883 0.880173
vn -0.059702 -0.470883 0.880173
vn 0.084148 0.996446 -0.003881
vn 0.084148 0.996446 -0.003881
vn 0.084148 0.996446 -0.003881
vn 0.084148 0.996446 -0.003881
vn 0.100775 0.994909 -0.000282
vn 0.100775 0.994909 -0.000282
vn 0.100775 0.994909 -0.000282
vn 0.100775 0.994909 -0.000282
vn 0.108481 0.994049 -0.009973
vn 0.108481 0.994049 -0.009973
vn 0.108481 0.994048 -0.009973
vn 0.108481 0.994048 -0.009973
vn 0.999088 -0.041067 -0.011713
vn 0.999088 -0.041067 -0.011713
vn 0.999088 -0.041067 -0.011713
vn 0.999088 -0.041067 -0.011713
vn -0.999107 0.041666 0.007074
vn -0.999107 0.041666 0.007074
vn -0.999107 0.041666 0.007074
vn -0.999107 0.041666 0.007074
vn -0.994544 0.104267 0.003292
vn -0.994544 0.104267 0.003292
vn -0.999916 0.003227 0.012560
vn -0.999916 0.003227 0.012560
vn -0.999916 0.003227 0.012560
vn -0.999916 0.003227 0.012560
vn 0.999070 -0.041730 -0.010843
vn 0.999070 -0.041730 -0.010843
vn 0.999070 -0.041730 -0.010843
vn 0.999070 -0.041730 -0.010843
vn 0.999070 -0.041729 -0.010843
vn 0.999070 -0.041729 -0.010843
vn 0.999070 -0.041729 -0.010843
vn 0.999070 -0.041729 -0.010843
vn -0.027203 -0.987438 0.155650
vn -0.027203 -0.987438 0.155650
vn -0.027203 -0.987438 0.155650
vn -0.027203 -0.987438 0.155650
vn -0.083914 -0.006124 0.996454
vn -0.083914 -0.006124 0.996454
vn -0.083914 -0.006124 0.996454
vn -0.083914 -0.006124 0.996454
vn -0.083914 -0.006124 0.996454
vn -0.083914 -0.006124 0.996454
vn -0.083914 -0.006124 0.996454
vn -0.083914 -0.006124 0.996454
vn -0.083914 -0.006124 0.996454
vn -0.083914 -0.006124 0.996454
vn -0.083914 -0.006124 0.996454
vn -0.083914 -0.006124 0.996454
vn 0.044823 0.995116 -0.087943
vn 0.044823 0.995116 -0.087943
vn 0.044823 0.995116 -0.087943
vn 0.044823 0.995117 -0.087943
vn -0.041706 -0.999126 0.002883
vn -0.041706 -0.999126 0.002883
vn -0.041706 -0.999126 0.002883
vn -0.041706 -0.999126 0.002883
vn -0.028983 -0.010659 -0.999523
vn -0.028983 -0.010659 -0.999523
vn -0.028983 -0.010659 -0.999523
vn -0.028983 -0.010659 -0.999523
vn -0.028983 -0.010659 -0.999523
vn -0.028983 -0.010659 -0.999523
vn -0.028983 -0.010659 -0.999523
vn -0.028983 -0.010659 -0.999523
vn -0.028983 -0.010659 -0.999523
vn -0.028983 -0.010659 -0.999523
vn -0.028983 -0.010659 -0.999523
vn -0.028983 -0.010659 -0.999523
vn 0.041930 0.998540 0.034048
vn 0.041930 0.998540 0.034048
vn 0.041930 0.998540 0.034048
vn 0.041930 0.998540 0.034048
vn 0.004378 -0.002178 0.999988
vn 0.004378 -0.002178 0.999988
vn 0.004378 -0.002178 0.999988
vn 0.004378 -0.002178 0.999988
vn 0.001037 -0.000027 0.999999
vn 0.001037 -0.000027 0.999999
vn 0.001037 -0.000027 0.999999
vn -0.859821 0.510589 0.002509
vn -0.859821 0.510589 0.002509
vn -0.859821 0.510589 0.002509
vn -0.859821 0.510589 0.002509
vn -0.859821 0.510589 0.002509
vn -0.859821 0.510589 0.002509
vn -0.859821 0.510589 0.002509
vn -0.859821 0.510589 0.002509
vn -0.859821 0.510589 0.002509
vn -0.859821 0.510589 0.002509
vn -0.859821 0.510589 0.002509
vn -0.021133 -0.981846 0.188500
vn -0.021133 -0.981846 0.188500
vn -0.021133 -0.981846 0.188500
vn -0.021133 -0.981846 0.188500
vn -0.021133 -0.981846 0.188500
s 1
g pCube1
usemtl lambert10SG
f 3/74/1 4/75/2 9/76/3
s 2
f 5/84/4 10/85/5 6/86/6
s off
f 2/66/7 8/67/8 6/68/9 4/69/10
f 7/70/11 1/71/12 3/72/13 5/73/14
s 1
f 1/77/15 23/78/16 25/79/17 26/80/18 27/81/19 24/82/20 2/83/21 4/75/2 3/74/1
s 2
f 5/84/4 6/86/6 8/87/22 7/88/23
s off
f 64/157/24 11/158/25 15/159/26 16/160/27
f 18/165/28 21/166/29 22/167/30 17/168/31 19/169/32 20/170/33
usemtl lambert4SG
f 15/15/34 11/11/35 9/4/36 4/43/37 6/5/38 10/7/39 17/18/40 22/21/41
f 21/20/42 16/16/43 15/10/44 22/21/45
f 14/14/46 19/19/47 17/17/48 10/6/49 5/46/50 3/42/51 9/44/52 11/45/53
f 13/13/54 20/57/55 19/19/56 14/9/57
usemtl initialShadingGroup
f 64/32/58 16/33/59 21/34/60 18/35/61 34/37/62 40/52/63 39/58/64 33/59/65 12/60/66 65/61/67 67/62/68
usemtl initialShadingGroup lambert5SG
f 29/27/69 28/28/70 30/29/71 31/30/72 32/31/73
f 24/23/74 27/26/75 28/28/76 29/27/77
f 27/26/78 26/25/79 30/29/80 28/28/81
f 26/25/82 25/24/83 31/30/84 30/29/85
f 25/24/86 23/48/87 32/31/88 31/30/89
usemtl lambert4SG
f 24/23/90 29/27/91 32/31/92 23/22/93 1/2/94 7/1/95 8/47/96 2/3/97
s 3
usemtl lambert10SG
f 37/171/98 36/172/99 35/173/100 38/174/101 41/175/102 42/176/103
s off
f 34/185/104 36/186/105 37/187/106
f 35/188/107 33/189/108 38/190/109
f 43/113/110 44/114/111 45/115/112 46/116/113
f 42/177/114 40/178/115 34/179/116 37/180/117
f 33/181/118 39/182/119 41/183/120 38/184/121
f 52/89/122 54/90/123 45/91/124 44/92/125
f 48/93/126 50/94/127 43/95/128 46/96/129
s 3
f 42/97/103 41/98/102 49/99/130 47/100/131
s off
f 56/101/132 55/102/133 57/103/134 58/104/135
f 39/105/136 40/106/137 53/107/138 51/108/139
f 60/109/140 59/110/141 61/111/142 62/112/143
f 47/117/144 49/118/145 55/119/146 56/120/147
f 52/133/148 44/134/149 43/135/150 50/136/151 57/137/152 55/138/153 49/139/154 41/140/155 39/141/156 51/142/157 60/143/158 62/144/159
f 50/121/160 48/122/161 58/123/162 57/124/163
f 51/125/164 53/126/165 59/127/166 60/128/167
f 54/145/168 61/146/169 59/147/170 53/148/171 40/149/172 42/150/173 47/151/174 56/152/175 58/153/176 48/154/177 46/155/178 45/156/179
f 54/129/180 52/130/181 62/131/182 61/132/183
f 11/161/184 63/162/185 13/163/186 14/164/187
usemtl initialShadingGroup
f 65/39/188 66/40/189 67/41/190
f 63/12/191 66/49/192 65/50/193 12/51/194 33/53/195 35/54/196 36/55/197 34/56/198 18/63/199 20/64/200 13/65/201
f 66/40/202 63/36/203 11/8/204 64/38/205 67/41/206
